<!-- Generator: Adobe Illustrator 24.0.1, SVG Export Plug-In  -->
<svg version="1.1" xmlns="http://www.w3.org/2000/svg" xmlns:xlink="http://www.w3.org/1999/xlink" x="0px" y="0px"
	 width="658.48px" height="185.3px" viewBox="0 0 658.48 185.3" style="enable-background:new 0 0 658.48 185.3;"
	 xml:space="preserve">
<style type="text/css">
	.st0{fill:#CDDC39;}
	.st1{fill:#8BC34A;}
</style>
<defs>
</defs>
<g>
	<g>
		<path d="M235.41,62.76l-17.89-23.98h-17.63v23.98h-6.96V1.06h26.53c3.41,0,6.48,0.44,9.21,1.32s5.07,2.13,7.01,3.75
			c1.94,1.62,3.44,3.56,4.5,5.82c1.06,2.26,1.59,4.78,1.59,7.54c0,2.59-0.41,4.89-1.23,6.92c-0.82,2.03-1.98,3.79-3.48,5.29
			c-1.5,1.5-3.28,2.75-5.33,3.75c-2.06,1-4.29,1.7-6.7,2.12l18.95,25.19H235.41z M230.64,10.72c-2.77-2.15-6.66-3.23-11.66-3.23
			h-19.09v25.12h19c2.3,0,4.42-0.29,6.36-0.88c1.94-0.59,3.62-1.43,5.04-2.52c1.41-1.09,2.52-2.43,3.31-4.02
			c0.8-1.59,1.19-3.39,1.19-5.4C234.79,15.9,233.4,12.87,230.64,10.72z"/>
		<path d="M314.56,44.03c-1.53,3.85-3.67,7.24-6.43,10.18c-2.76,2.94-6.08,5.27-9.96,7.01c-3.88,1.73-8.17,2.6-12.87,2.6
			c-4.7,0-8.98-0.85-12.83-2.56c-3.85-1.7-7.16-4.01-9.92-6.92c-2.76-2.91-4.89-6.29-6.39-10.14c-1.5-3.85-2.25-7.92-2.25-12.21
			c0-4.29,0.76-8.36,2.29-12.21c1.53-3.85,3.67-7.24,6.43-10.18c2.76-2.94,6.08-5.27,9.96-7.01c3.88-1.73,8.17-2.6,12.87-2.6
			c4.7,0,8.98,0.85,12.83,2.56c3.85,1.7,7.15,4.01,9.92,6.92c2.76,2.91,4.89,6.29,6.39,10.14c1.5,3.85,2.25,7.92,2.25,12.21
			C316.85,36.11,316.09,40.18,314.56,44.03z M307.82,22.04c-1.21-3.11-2.9-5.82-5.07-8.11c-2.18-2.29-4.75-4.11-7.71-5.47
			c-2.97-1.35-6.21-2.03-9.74-2.03c-3.53,0-6.77,0.66-9.74,1.98c-2.97,1.32-5.51,3.13-7.62,5.42c-2.12,2.29-3.78,4.98-4.98,8.07
			c-1.2,3.08-1.81,6.39-1.81,9.92c0,3.53,0.6,6.85,1.81,9.96c1.2,3.12,2.89,5.82,5.07,8.11c2.17,2.29,4.74,4.11,7.71,5.47
			c2.97,1.35,6.21,2.03,9.74,2.03c3.53,0,6.77-0.66,9.74-1.98c2.97-1.32,5.51-3.13,7.62-5.42c2.12-2.29,3.77-4.98,4.98-8.07
			c1.2-3.08,1.81-6.39,1.81-9.92S309.02,25.15,307.82,22.04z"/>
		<path d="M389.48,44.03c-1.53,3.85-3.67,7.24-6.43,10.18c-2.76,2.94-6.08,5.27-9.96,7.01c-3.88,1.73-8.17,2.6-12.87,2.6
			c-4.7,0-8.98-0.85-12.83-2.56c-3.85-1.7-7.16-4.01-9.92-6.92c-2.76-2.91-4.89-6.29-6.39-10.14c-1.5-3.85-2.25-7.92-2.25-12.21
			c0-4.29,0.76-8.36,2.29-12.21c1.53-3.85,3.67-7.24,6.43-10.18c2.76-2.94,6.08-5.27,9.96-7.01c3.88-1.73,8.17-2.6,12.87-2.6
			c4.7,0,8.98,0.85,12.83,2.56c3.85,1.7,7.15,4.01,9.92,6.92c2.76,2.91,4.89,6.29,6.39,10.14c1.5,3.85,2.25,7.92,2.25,12.21
			C391.78,36.11,391.01,40.18,389.48,44.03z M382.74,22.04c-1.21-3.11-2.9-5.82-5.07-8.11c-2.18-2.29-4.75-4.11-7.71-5.47
			c-2.97-1.35-6.21-2.03-9.74-2.03s-6.77,0.66-9.74,1.98c-2.97,1.32-5.51,3.13-7.62,5.42c-2.12,2.29-3.78,4.98-4.98,8.07
			c-1.2,3.08-1.81,6.39-1.81,9.92c0,3.53,0.6,6.85,1.81,9.96c1.2,3.12,2.89,5.82,5.07,8.11c2.17,2.29,4.74,4.11,7.71,5.47
			c2.97,1.35,6.21,2.03,9.74,2.03c3.53,0,6.77-0.66,9.74-1.98c2.97-1.32,5.51-3.13,7.62-5.42c2.12-2.29,3.77-4.98,4.98-8.07
			c1.2-3.08,1.81-6.39,1.81-9.92S383.95,25.15,382.74,22.04z"/>
		<path d="M436.11,45.84h-0.35l-22.48-32.97v49.89h-6.79V1.06h7.05l22.48,33.67L458.5,1.06h7.05v61.7h-6.96V12.78L436.11,45.84z"/>
	</g>
	<g>
		<path d="M68.91,60.2c12.47-0.71,22.08,1.7,28.84,7.22c6.75,5.53,11.09,12.87,13,22.03c1.91,9.16,1.89,18.91-0.08,29.25
			c-3.77,18.43-9.56,32.75-17.35,42.95c-7.79,10.2-16.33,17-25.6,20.39s-17.98,4.14-26.13,2.26c-8.15-1.89-14.48-5.69-18.99-11.4
			c-4.51-5.71-5.89-12.59-4.14-20.63c0.66-2.19,1.52-3.27,2.58-3.24c1.07,0.03,2.06,0.62,2.99,1.76c3.23,3.72,6.59,6.65,10.09,8.78
			c-2.13-1.86-3.09-3.86-2.87-5.99c1.81-11.1,4.18-21.97,7.14-32.61c2.95-10.64,7.27-21.84,12.96-33.6
			c-6.89,4.92-13.43,11.71-19.61,20.35c-6.18,8.64-11.4,18.65-15.67,30.03c-1.04,2.57-2.17,3.83-3.4,3.77
			c-1.23-0.05-2.61-0.93-4.14-2.63c-5.36-6.18-8.19-13.4-8.49-21.66c-0.3-8.26,1.74-15.7,6.11-22.32
			c7.22-10.12,16.38-18.19,27.48-24.2C44.73,64.68,56.49,61.18,68.91,60.2z M45.44,163.99c7.66,1.31,14.48-0.05,20.47-4.1
			c5.99-4.05,10.97-9.65,14.93-16.82c3.96-7.17,6.71-14.8,8.25-22.89c1.53-8.09,1.69-15.55,0.49-22.36
			c-1.2-6.81-3.97-11.88-8.29-15.22c-4.32-3.34-10.37-3.8-18.13-1.4c2.95,0,5.74,0.64,8.37,1.93c2.63,1.29,4.62,3.13,5.99,5.54
			c0.11,0.27,0.09,0.48-0.04,0.62c-0.14,0.14-0.34,0.29-0.62,0.45c-0.55,0.27-1.09,0.77-1.64,1.48c-3.99,6.18-7.29,13.45-9.89,21.82
			c-2.6,8.37-4.42,16.56-5.46,24.57c-1.04,8.01-1.23,14.59-0.57,19.73c0.27,1.26-0.97,2.64-3.73,4.14
			C52.81,162.99,49.43,163.82,45.44,163.99z"/>
		<path d="M170.23,162.1c-2.68,4.16-5.78,7.86-9.31,11.12c-3.53,3.25-7.38,5.85-11.57,7.79c-4.18,1.94-8.52,2.91-13,2.91
			c-5.36,0-9.78-1.04-13.25-3.12c-3.47-2.08-6.15-4.87-8.04-8.37c-1.89-3.5-3.08-7.42-3.57-11.77c-0.49-4.35-0.42-8.85,0.21-13.5
			c0.63-4.65,1.71-9.19,3.24-13.62c1.91-5.52,4.44-10.53,7.59-15.01c3.14-4.48,6.81-8.08,10.99-10.79
			c4.18-2.71,8.82-4.06,13.91-4.06c4.92,0,8.93,1.35,12.02,4.06c3.09,2.71,5.26,6.07,6.52,10.09c1.26,4.02,1.59,8.11,0.98,12.27
			c-1.31,8.15-4.79,14.07-10.42,17.76c-5.63,3.69-12.34,6-20.1,6.93c1.2,6.07,3.87,9.89,8,11.45c4.13,1.56,9.05-0.14,14.77-5.09
			c5.71-4.95,11.53-14.15,17.43-27.61c0.44-0.87,0.92-1.15,1.44-0.82c0.52,0.33,0.81,1.04,0.86,2.13
			C178.76,144.21,175.86,153.29,170.23,162.1z M136.1,145.36c2.68-1.2,5.29-3.12,7.84-5.74c2.54-2.63,4.06-5.41,4.55-8.37
			c0.6-6.13,0.45-9.75-0.45-10.87c-0.9-1.12-2.17-0.49-3.82,1.89c-1.64,2.38-3.28,5.7-4.92,9.97
			C137.55,136.88,136.48,141.26,136.1,145.36z"/>
		<path d="M197.88,183.92c-5.36,0-9.78-1.04-13.25-3.12c-3.47-2.08-6.15-4.87-8.04-8.37c-1.89-3.5-3.08-7.42-3.57-11.77
			c-0.49-4.35-0.42-8.85,0.21-13.5c0.63-4.65,1.71-9.19,3.24-13.62c1.91-5.52,4.44-10.53,7.59-15.01
			c3.14-4.48,6.81-8.08,10.99-10.79c4.18-2.71,8.82-4.06,13.91-4.06c4.92,0,8.93,1.35,12.02,4.06c3.09,2.71,5.26,6.07,6.52,10.09
			c1.26,4.02,1.59,8.11,0.98,12.27c-0.88,6.89-3.89,11.4-9.03,13.54c-0.82,0.33-2.06,0.55-3.73,0.66c-1.67,0.11-3.34,0.08-5.01-0.08
			c-1.67-0.16-2.95-0.53-3.86-1.11c-0.9-0.57-0.97-1.41-0.21-2.5c0.77-1.15,1.46-2.6,2.09-4.35c0.63-1.75,1.05-3.42,1.27-5
			c0.6-6.13,0.45-9.75-0.45-10.87c-0.9-1.12-2.17-0.49-3.81,1.89c-1.64,2.38-3.28,5.7-4.92,9.97c-3.12,8.75-4.09,16.2-2.91,22.36
			c1.18,6.15,3.83,10.04,7.96,11.65c4.13,1.61,9.05-0.05,14.77-5c5.71-4.95,11.56-14.18,17.52-27.69c0.44-0.87,0.92-1.15,1.44-0.82
			c0.52,0.33,0.81,1.04,0.86,2.13c-0.17,9.35-3.06,18.43-8.7,27.24c-2.68,4.16-5.79,7.86-9.31,11.12
			c-3.53,3.25-7.38,5.85-11.57,7.79C206.7,182.95,202.36,183.92,197.88,183.92z"/>
		<path d="M243.91,121.24c0.93-6.34,3.45-10.95,7.55-13.82c4.1-2.87,9.46-4.28,16.08-4.23c4.38-0.05,8.35,1.33,11.94,4.14
			c3.58,2.82,6.18,7.3,7.79,13.46c1.61,6.15,1.65,14.21,0.12,24.16c-0.44,2.63-0.98,5.2-1.64,7.71c2.68-1.59,5.03-3.83,7.06-6.73
			c2.02-2.9,4.1-7.03,6.23-12.39c0.44-0.93,0.93-1.22,1.48-0.86c0.55,0.36,0.82,1.08,0.82,2.17c-0.11,4.65-1.01,9.23-2.71,13.74
			c-1.7,4.51-4.07,8.36-7.14,11.53c-3.06,3.17-6.67,5.11-10.83,5.83c-1.64,2.9-3.5,5.51-5.58,7.84c-2.08,2.33-4.49,4.18-7.22,5.58
			c-2.74,1.39-5.88,2.09-9.44,2.09c-4.98,0-9.08-1.01-12.31-3.04c-3.23-2.02-5.73-4.73-7.51-8.12c-1.78-3.39-2.92-7.18-3.45-11.36
			c-0.52-4.18-0.52-8.46,0-12.84c0.52-4.38,1.41-8.56,2.67-12.55C239.48,128.62,241.5,124.52,243.91,121.24z M260.72,156.68
			c-0.33,3.99,0,6.22,0.98,6.69c0.99,0.47,2.24-0.42,3.77-2.67C263.73,159.5,262.15,158.16,260.72,156.68z M272.05,142.65
			c0.99-6.67,0.92-11.99-0.21-15.96c-1.12-3.96-2.72-6.47-4.8-7.51c-2.08-1.04-4.05-0.52-5.91,1.56c0.71,0.22,1.33,0.52,1.85,0.9
			c0.52,0.38,1.03,0.93,1.52,1.64c0.49,0.71,0.87,1.65,1.15,2.83c0.27,1.18,0.35,2.67,0.25,4.47c-0.22,2.41-0.44,4.16-0.66,5.25
			c-0.22,1.09-0.49,2.16-0.82,3.2c-0.16,0.55-0.36,1.23-0.58,2.05c-0.16-0.16-0.33-0.33-0.49-0.49c-0.6-0.87-1.45-1.64-2.54-2.3
			c0.55,1.04,1.01,1.87,1.4,2.5c0.38,0.63,0.76,1.24,1.15,1.85c1.75,3.34,3.96,6.1,6.65,8.29
			C270.87,148.37,271.55,145.61,272.05,142.65z"/>
		<path d="M355.65,134.86c-0.11,4.05-1.01,8.38-2.71,13c-1.7,4.62-3.56,8.74-5.58,12.35c-2.08,3.88-4.29,7.43-6.65,10.63
			c-2.35,3.2-5.03,5.77-8.04,7.71c-3.01,1.94-6.59,2.91-10.75,2.91c-4.38,0-7.69-1.46-9.93-4.39c-2.24-2.93-3.62-6.75-4.14-11.49
			c-0.52-4.73-0.4-9.89,0.37-15.47c0.77-5.58,2.02-11.1,3.77-16.57c0.6-2.13,0.71-3.43,0.33-3.9c-0.38-0.46-1.29-0.67-2.71-0.62
			c-0.71,0-1.56-0.03-2.54-0.08c-1.31,4.43-3.06,9.05-5.25,13.87c-2.19,4.81-4.4,9.14-6.65,12.96c-3.23,5.03-5.57,7.26-7.01,6.69
			c-1.45-0.57-0.53-4.01,2.75-10.3c3.34-5.91,5.94-12.11,7.79-18.62c0.6-2.08,1.12-4.21,1.56-6.4c-2.74-1.42-4.68-3.34-5.83-5.74
			c-1.15-2.41-1.59-4.95-1.31-7.63c0.33-3.72,1.7-6.97,4.1-9.76c2.41-2.79,5.55-4.24,9.43-4.35c2.9,0.11,5.13,1.09,6.69,2.95
			c1.56,1.86,2.45,4.21,2.67,7.06c0,0.22,0.03,0.41,0.08,0.57c-1.31,0.6-2.6,1.31-3.86,2.13c2.13-0.27,4.38-0.66,6.73-1.15
			c1.15-0.16,2.46-0.46,3.94-0.9c2.3-0.71,4.66-1.18,7.1-1.39c2.43-0.22,4.5,0.41,6.19,1.89c1.69,1.48,2.6,4.43,2.71,8.86
			c-0.22,4.05-0.93,7.82-2.13,11.32c-0.27,0.93-0.49,1.78-0.66,2.54c-1.53,5.63-2.28,10.63-2.26,14.97c0.03,4.35,0.79,7.19,2.3,8.53
			c1.5,1.34,3.69,0.29,6.56-3.16c2.87-3.45,6.41-10.23,10.62-20.35c0.44-0.93,0.91-1.22,1.44-0.86
			C355.31,133.04,355.6,133.77,355.65,134.86z"/>
		<path d="M368.69,181.46c-5.03,0-9.02-1.48-11.98-4.43s-4.99-6.8-6.11-11.53c-1.12-4.73-1.44-9.89-0.94-15.47
			c0.49-5.58,1.64-11.08,3.45-16.49c2.41-7,5.28-12.7,8.61-17.11c3.34-4.4,7-7.63,10.99-9.68c3.99-2.05,8.15-3.08,12.47-3.08
			c3.88,0,6.89,1.18,9.02,3.53c2.13,2.35,3.61,5.28,4.43,8.78c1.75-2.95,3.53-5.25,5.33-6.89c2.73-2.46,6.15-3.64,10.26-3.53
			c4.1,0.11,7.9,1.83,11.4,5.17c0.55,0.6,0.67,1.23,0.37,1.89c-0.3,0.66-0.81,1.42-1.52,2.3c-0.33,0.38-0.68,0.82-1.07,1.31
			c-3.83,5.36-6.54,11.13-8.12,17.31c-1.53,5.63-2.28,10.63-2.26,14.97c0.03,4.35,0.79,7.19,2.3,8.53c1.5,1.34,3.69,0.29,6.56-3.16
			c2.87-3.45,6.41-10.23,10.62-20.35c0.44-0.93,0.92-1.22,1.44-0.86c0.52,0.36,0.81,1.08,0.86,2.17c-0.11,4.05-1.01,8.38-2.71,13
			c-1.7,4.62-3.56,8.71-5.58,12.27c-2.08,3.94-4.3,7.51-6.65,10.71c-2.35,3.2-5.03,5.77-8.04,7.71c-3.01,1.94-6.59,2.91-10.75,2.91
			c-4.05,0-7.16-1.27-9.35-3.81c-2.19-2.54-3.64-5.92-4.35-10.13c-2.46,4.1-5.25,7.45-8.37,10.05
			C375.91,180.16,372.47,181.46,368.69,181.46z M377.06,133.55c-1.26,4.49-2.08,8.55-2.46,12.18c-0.38,3.64-0.25,6.56,0.41,8.78
			c0.66,2.22,1.97,3.32,3.94,3.32c1.31,0,2.61-0.9,3.9-2.71c1.28-1.81,2.49-4.05,3.61-6.73c1.12-2.68,2.09-5.36,2.91-8.04
			c0.55-2.3,1.15-4.57,1.8-6.81c0.27-1.2,0.4-2.88,0.37-5.05c-0.03-2.16-0.34-4.16-0.94-5.99c-0.6-1.83-1.61-2.75-3.04-2.75
			c-1.86,0-3.77,1.31-5.74,3.94C379.85,126.33,378.27,129.61,377.06,133.55z"/>
		<path d="M492.99,101.14c0.55,2.84-1.42,3.83-5.91,2.95c-5.74-0.93-12.5-0.79-20.26,0.41c-0.33,0-0.63,0-0.9,0
			c-1.42,0.16-2.74,0.22-3.94,0.16c1.53,0.71,2.87,1.2,4.02,1.48c-4.48,8.92-7.82,18.05-10.01,27.4c-2.3,10.83-2.83,17.96-1.6,21.37
			c1.23,3.42,3.54,3.3,6.93-0.37c3.39-3.66,7.25-10.67,11.57-21c0.49-0.93,1-1.22,1.52-0.86c0.52,0.36,0.81,1.08,0.86,2.17
			c-0.11,4.05-1.01,8.38-2.71,13c-1.7,4.62-3.56,8.71-5.58,12.27c-2.08,3.94-4.31,7.51-6.69,10.71c-2.38,3.2-5.07,5.77-8.08,7.71
			c-3.01,1.94-6.56,2.91-10.67,2.91c-3.5,0-6.26-1.28-8.29-3.86c-2.02-2.57-3.38-6.07-4.06-10.5c-0.68-4.43-0.75-9.52-0.21-15.26
			c0.55-5.74,1.61-11.84,3.2-18.3c2.35-9.3,5.22-18.19,8.61-26.66c-3.72-0.11-6.8-0.87-9.23-2.3c-2.43-1.42-3.95-3.75-4.55-6.97
			c-0.49-2.41-0.42-4.01,0.21-4.8c0.63-0.79,2.26-0.86,4.88-0.21c3.94,0.88,9,0.96,15.18,0.25c3.88-7.27,7.93-12.77,12.14-16.49
			c4.7-3.94,9.6-5.73,14.69-5.37c5.09,0.36,9.22,3.35,12.39,8.98c0.22,0.49,0.11,1.01-0.33,1.56c-0.44,0.55-1.15,0.88-2.13,0.98
			c-1.2,0.11-2.27,0.55-3.2,1.31c-0.93,0.77-1.72,1.56-2.38,2.38c-0.55,0.66-1.09,1.34-1.64,2.05c1.48-0.22,2.79-0.36,3.94-0.41
			c2.68-0.16,5.2,0.92,7.55,3.24C490.67,93.41,492.22,96.76,492.99,101.14z"/>
		<path d="M482.65,181.46c-4.38,0-7.66-1.46-9.85-4.39c-2.19-2.93-3.54-6.75-4.06-11.49c-0.52-4.73-0.4-9.89,0.37-15.47
			c0.77-5.58,1.97-11.1,3.61-16.57c3.55-11.32,7.82-19.47,12.8-24.45c2.73-2.46,6.15-3.64,10.26-3.53c4.1,0.11,7.93,1.83,11.49,5.17
			c0.55,0.6,0.66,1.23,0.33,1.89s-0.85,1.42-1.56,2.3c-0.33,0.38-0.68,0.82-1.07,1.31c-3.77,5.36-6.48,11.13-8.12,17.31
			c-1.53,5.63-2.28,10.63-2.26,14.97c0.03,4.35,0.79,7.19,2.3,8.53c1.5,1.34,3.69,0.29,6.56-3.16c2.87-3.45,6.41-10.23,10.62-20.35
			c0.44-0.93,0.92-1.22,1.44-0.86c0.52,0.36,0.81,1.08,0.86,2.17c-0.11,4.05-1.01,8.38-2.71,13c-1.7,4.62-3.56,8.71-5.58,12.27
			c-2.08,3.94-4.29,7.51-6.65,10.71c-2.35,3.2-5.03,5.77-8.04,7.71C490.39,180.49,486.81,181.46,482.65,181.46z M506.69,99.74
			c-2.46,0.6-4.7,0.77-6.73,0.49c-2.02-0.27-3.66-1.18-4.92-2.71c-1.26-1.53-1.89-3.96-1.89-7.3c0-6.67,2.16-11.54,6.48-14.6
			c0.66-0.49,2.01-1.11,4.06-1.85c2.05-0.74,4.99-1.11,8.82-1.11c3.56,0,6.21,0.42,7.96,1.27c1.75,0.85,2.73,1.55,2.95,2.09
			c0.93,1.53-0.77,5.85-5.09,12.96c-1.86,2.68-3.99,5.06-6.4,7.14C509.54,98.21,507.79,99.42,506.69,99.74z"/>
		<path d="M519.82,121.24c0.93-6.34,3.45-10.95,7.55-13.82c4.1-2.87,9.46-4.28,16.08-4.23c4.38-0.05,8.35,1.33,11.94,4.14
			c3.58,2.82,6.18,7.3,7.79,13.46c1.61,6.15,1.65,14.21,0.12,24.16c-0.44,2.63-0.98,5.2-1.64,7.71c2.68-1.59,5.03-3.83,7.06-6.73
			c2.02-2.9,4.1-7.03,6.23-12.39c0.44-0.93,0.93-1.22,1.48-0.86c0.55,0.36,0.82,1.08,0.82,2.17c-0.11,4.65-1.01,9.23-2.71,13.74
			c-1.7,4.51-4.07,8.36-7.14,11.53c-3.06,3.17-6.67,5.11-10.83,5.83c-1.64,2.9-3.5,5.51-5.58,7.84c-2.08,2.33-4.49,4.18-7.22,5.58
			c-2.74,1.39-5.88,2.09-9.44,2.09c-4.98,0-9.08-1.01-12.31-3.04c-3.23-2.02-5.73-4.73-7.51-8.12c-1.78-3.39-2.92-7.18-3.45-11.36
			c-0.52-4.18-0.52-8.46,0-12.84c0.52-4.38,1.41-8.56,2.67-12.55C515.39,128.62,517.41,124.52,519.82,121.24z M536.64,156.68
			c-0.33,3.99,0,6.22,0.98,6.69c0.99,0.47,2.24-0.42,3.77-2.67C539.65,159.5,538.06,158.16,536.64,156.68z M547.96,142.65
			c0.99-6.67,0.92-11.99-0.21-15.96c-1.12-3.96-2.72-6.47-4.8-7.51c-2.08-1.04-4.05-0.52-5.91,1.56c0.71,0.22,1.33,0.52,1.85,0.9
			c0.52,0.38,1.03,0.93,1.52,1.64c0.49,0.71,0.87,1.65,1.15,2.83c0.27,1.18,0.35,2.67,0.25,4.47c-0.22,2.41-0.44,4.16-0.66,5.25
			c-0.22,1.09-0.49,2.16-0.82,3.2c-0.16,0.55-0.36,1.23-0.58,2.05c-0.16-0.16-0.33-0.33-0.49-0.49c-0.6-0.87-1.45-1.64-2.54-2.3
			c0.55,1.04,1.01,1.87,1.4,2.5c0.38,0.63,0.76,1.24,1.15,1.85c1.75,3.34,3.96,6.1,6.65,8.29
			C546.78,148.37,547.47,145.61,547.96,142.65z"/>
		<path d="M606.05,116.24c-2.35,3.45-4.76,9.22-7.22,17.31c-1.2,3.99-2.27,8.1-3.2,12.31c2.19-4.98,4.62-9.94,7.3-14.89
			c2.68-4.95,5.51-9.48,8.49-13.58c2.98-4.1,6-7.41,9.07-9.93c3.06-2.51,6.02-3.77,8.86-3.77c3.01,0,5.83,1.09,8.45,3.28
			c2.63,2.19,4.35,4.68,5.17,7.47c0.55,2.19,0.56,4.69,0.04,7.51c-0.52,2.82-1.3,6.06-2.34,9.72c-0.16,0.6-0.33,1.23-0.49,1.89
			c-1.53,5.63-2.34,10.63-2.42,14.97c-0.08,4.35,0.55,7.19,1.89,8.53c1.34,1.34,3.38,0.27,6.11-3.2
			c2.74-3.47,6.21-10.24,10.42-20.31c0.44-0.93,0.93-1.22,1.48-0.86c0.55,0.36,0.82,1.08,0.82,2.17c-0.22,8.2-3.15,17.37-8.78,27.48
			c-2.02,3.56-4.28,6.77-6.77,9.64c-2.49,2.87-5.16,5.17-8,6.89c-2.84,1.72-5.82,2.58-8.94,2.58c-4.38,0-7.66-1.46-9.85-4.39
			c-2.19-2.93-3.54-6.75-4.06-11.49c-0.52-4.73-0.4-9.89,0.37-15.47c0.77-5.58,1.97-11.1,3.61-16.57c1.8-5.85,2-8.01,0.58-6.48
			c-1.42,1.53-3.6,5.17-6.52,10.91c-2.93,5.74-5.76,11.99-8.49,18.75c-2.74,6.76-4.54,12.38-5.42,16.86
			c0.16,0.71-0.21,1.68-1.11,2.91c-0.9,1.23-2.31,2.37-4.22,3.41c-1.92,1.04-4.29,1.56-7.14,1.56c-3.83,0-6.74-1.46-8.74-4.39
			c-2-2.93-3.27-6.75-3.81-11.49c-0.55-4.73-0.51-9.89,0.12-15.47c0.63-5.58,1.71-11.1,3.24-16.57
			c3.17-11.32,7.19-19.47,12.06-24.45c2.73-2.46,6.17-3.64,10.3-3.53c4.13,0.11,7.94,1.83,11.45,5.17c0.55,0.6,0.67,1.23,0.37,1.89
			c-0.3,0.66-0.84,1.42-1.6,2.3C606.79,115.31,606.43,115.74,606.05,116.24z"/>
	</g>
	<g>
		<g>
			<g>
				<line x1="155.16" y1="31.82" x2="107.52" y2="31.82"/>
				<path class="st0" d="M155.16,33.38l-47.65,1.09c-1.46,0.03-2.68-1.13-2.71-2.59c-0.03-1.46,1.13-2.68,2.59-2.71
					c0.04,0,0.08,0,0.12,0l47.65,1.09c0.86,0.02,1.54,0.73,1.52,1.6C156.67,32.69,155.99,33.36,155.16,33.38z"/>
			</g>
			<g>
				<g>
					<line x1="155.16" y1="20.48" x2="123.65" y2="3.59"/>
					<path class="st1" d="M153.91,22.82L123.15,4.53c-0.51-0.3-0.67-0.96-0.37-1.47c0.28-0.48,0.89-0.65,1.38-0.42l32.26,15.49
						c1.32,0.63,1.88,2.22,1.24,3.54c-0.63,1.32-2.22,1.88-3.54,1.24C154.05,22.89,153.97,22.85,153.91,22.82z"/>
				</g>
				<g>
					<line x1="155.16" y1="43.42" x2="123.65" y2="60.06"/>
					<path class="st1" d="M156.4,45.76l-32.17,15.39c-0.62,0.3-1.36,0.03-1.65-0.58c-0.28-0.59-0.06-1.29,0.5-1.61l30.85-17.89
						c1.27-0.74,2.89-0.3,3.63,0.96c0.74,1.27,0.3,2.89-0.96,3.63C156.53,45.7,156.46,45.73,156.4,45.76z"/>
				</g>
			</g>
		</g>
		<g>
			<g>
				<line x1="503.31" y1="31.82" x2="550.96" y2="31.82"/>
				<path class="st0" d="M503.31,33.38l47.65,1.09c1.46,0.03,2.68-1.13,2.71-2.59c0.03-1.46-1.13-2.68-2.59-2.71
					c-0.04,0-0.08,0-0.12,0l-47.65,1.09c-0.86,0.02-1.54,0.73-1.52,1.6C501.81,32.69,502.49,33.36,503.31,33.38z"/>
			</g>
			<g>
				<g>
					<line x1="503.31" y1="20.48" x2="534.83" y2="3.59"/>
					<path class="st1" d="M504.57,22.82l30.76-18.29c0.51-0.3,0.67-0.96,0.37-1.47c-0.28-0.48-0.89-0.65-1.38-0.42l-32.26,15.49
						c-1.32,0.63-1.88,2.22-1.24,3.54c0.63,1.32,2.22,1.88,3.54,1.24C504.43,22.89,504.5,22.85,504.57,22.82z"/>
				</g>
				<g>
					<line x1="503.31" y1="43.42" x2="534.83" y2="60.06"/>
					<path class="st1" d="M502.08,45.76l32.17,15.39c0.62,0.3,1.36,0.03,1.65-0.58c0.28-0.59,0.06-1.29-0.5-1.61l-30.85-17.89
						c-1.27-0.74-2.89-0.3-3.63,0.96c-0.74,1.27-0.3,2.89,0.96,3.63C501.95,45.7,502.01,45.73,502.08,45.76z"/>
				</g>
			</g>
		</g>
	</g>
</g>
</svg>
